<svg width="32" height="32" viewBox="0 0 32 32" fill="none" xmlns="http://www.w3.org/2000/svg">
<g opacity="0.8">
<path fill-rule="evenodd" clip-rule="evenodd" d="M4.27051 5.33337C4.27051 4.78109 4.71822 4.33337 5.27051 4.33337H7.93717C8.40407 4.33337 8.80883 4.65646 8.91231 5.11175L9.79601 9.00004H26.6038C26.9145 9.00004 27.2076 9.14444 27.3968 9.3908C27.5861 9.63717 27.6501 9.95751 27.5701 10.2577L24.9034 20.2577C24.7867 20.6955 24.3902 21 23.9372 21H11.2705C10.8036 21 10.3988 20.6769 10.2954 20.2217L7.13895 6.33337H5.27051C4.71822 6.33337 4.27051 5.88566 4.27051 5.33337ZM10.2506 11L12.0687 19H23.1689L25.3022 11H10.2506Z" fill="white"/>
<path fill-rule="evenodd" clip-rule="evenodd" d="M13.2705 23.6666C12.7182 23.6666 12.2705 24.1143 12.2705 24.6666C12.2705 25.2189 12.7182 25.6666 13.2705 25.6666C13.8228 25.6666 14.2705 25.2189 14.2705 24.6666C14.2705 24.1143 13.8228 23.6666 13.2705 23.6666ZM10.2705 24.6666C10.2705 23.0098 11.6137 21.6666 13.2705 21.6666C14.9274 21.6666 16.2705 23.0098 16.2705 24.6666C16.2705 26.3235 14.9274 27.6666 13.2705 27.6666C11.6137 27.6666 10.2705 26.3235 10.2705 24.6666Z" fill="white"/>
<path fill-rule="evenodd" clip-rule="evenodd" d="M21.2705 23.6666C20.7182 23.6666 20.2705 24.1143 20.2705 24.6666C20.2705 25.2189 20.7182 25.6666 21.2705 25.6666C21.8228 25.6666 22.2705 25.2189 22.2705 24.6666C22.2705 24.1143 21.8228 23.6666 21.2705 23.6666ZM18.2705 24.6666C18.2705 23.0098 19.6137 21.6666 21.2705 21.6666C22.9274 21.6666 24.2705 23.0098 24.2705 24.6666C24.2705 26.3235 22.9274 27.6666 21.2705 27.6666C19.6137 27.6666 18.2705 26.3235 18.2705 24.6666Z" fill="white"/>
</g>
</svg>
