<svg width="32" height="32" viewBox="0 0 32 32" fill="none" xmlns="http://www.w3.org/2000/svg">
<path fill-rule="evenodd" clip-rule="evenodd" d="M15.9998 6.00665C13.6066 6.00665 11.6665 7.94675 11.6665 10.34C11.6665 12.7332 13.6066 14.6733 15.9998 14.6733C18.3931 14.6733 20.3332 12.7332 20.3332 10.34C20.3332 7.94675 18.3931 6.00665 15.9998 6.00665ZM9.6665 10.34C9.6665 6.84218 12.502 4.00665 15.9998 4.00665C19.4976 4.00665 22.3332 6.84218 22.3332 10.34C22.3332 13.8378 19.4976 16.6733 15.9998 16.6733C12.502 16.6733 9.6665 13.8378 9.6665 10.34Z" fill="white"/>
<path fill-rule="evenodd" clip-rule="evenodd" d="M11.9998 19.9931C9.6066 19.9931 7.6665 21.9332 7.6665 24.3264V25.9931H24.3332V24.3264C24.3332 21.9332 22.3931 19.9931 19.9998 19.9931H11.9998ZM5.6665 24.3264C5.6665 20.8286 8.50203 17.9931 11.9998 17.9931H19.9998C23.4976 17.9931 26.3332 20.8286 26.3332 24.3264V26.9931C26.3332 27.5454 25.8855 27.9931 25.3332 27.9931H6.6665C6.11422 27.9931 5.6665 27.5454 5.6665 26.9931V24.3264Z" fill="white"/>
</svg>
