<svg width="24" height="24" viewBox="0 0 24 24" fill="none" xmlns="http://www.w3.org/2000/svg">
<g opacity="0.75">
<path fill-rule="evenodd" clip-rule="evenodd" d="M10.0232 4.50317C6.97471 4.50317 4.50342 6.97447 4.50342 10.023C4.50342 13.0715 6.97471 15.5428 10.0232 15.5428C13.0717 15.5428 15.543 13.0715 15.543 10.023C15.543 6.97447 13.0717 4.50317 10.0232 4.50317ZM3.00342 10.023C3.00342 6.14604 6.14629 3.00317 10.0232 3.00317C13.9001 3.00317 17.043 6.14604 17.043 10.023C17.043 13.8999 13.9001 17.0428 10.0232 17.0428C6.14629 17.0428 3.00342 13.8999 3.00342 10.023Z" fill="white"/>
<path fill-rule="evenodd" clip-rule="evenodd" d="M20.4063 20.4737C20.1134 20.7666 19.6385 20.7666 19.3456 20.4737L15.7623 16.8904C15.4694 16.5975 15.4694 16.1226 15.7623 15.8297C16.0552 15.5368 16.5301 15.5368 16.823 15.8297L20.4063 19.413C20.6992 19.7059 20.6992 20.1808 20.4063 20.4737Z" fill="white"/>
</g>
</svg>
